<?xml version="1.0" encoding="UTF-8"?>
<!DOCTYPE svg PUBLIC "-//W3C//DTD SVG 1.1//EN" "http://www.w3.org/Graphics/SVG/1.1/DTD/svg11.dtd">
<!-- Creator: CorelDRAW X6 -->
<svg xmlns="http://www.w3.org/2000/svg" xml:space="preserve" width="2020px" height="400px" version="1.1" style="shape-rendering:geometricPrecision; text-rendering:geometricPrecision; image-rendering:optimizeQuality; fill-rule:evenodd; clip-rule:evenodd"
viewBox="0 0 2020 400"
 xmlns:xlink="http://www.w3.org/1999/xlink">
 <defs>
  <style type="text/css">
   <![CDATA[
    .str0 {stroke:#2B2A29;stroke-width:0.9}
    .fil1 {fill:#FEFEFE;fill-rule:nonzero}
    .fil0 {fill:url(#id0)}
   ]]>
  </style>
  <linearGradient id="id0" gradientUnits="userSpaceOnUse" x1="253.657" y1="189.964" x2="400.964" y2="321.881">
   <stop offset="0" style="stop-color:#FBFFFF"/>
   <stop offset="1" style="stop-color:#F69E83"/>
  </linearGradient>
 </defs>
 <g id="Layer_x0020_1">
  <metadata id="CorelCorpID_0Corel-Layer"/>
  <g id="_396995680">
   <path class="fil0 str0" d="M300 35l54 54 -53 53 -45 -45c-15,-15 -39,-15 -54,0l0 0c-15,15 -15,39 0,54l45 45 -24 24 -2 2 -2 2 -24 24 -45 -45c-15,-15 -39,-15 -54,0l0 0c-15,15 -15,39 0,54l45 45 -53 53 -54 -54c-43,-43 -43,-114 0,-158l0 0c21,-21 48,-32 76,-32 1,-27 12,-55 32,-76l0 0c43,-43 114,-43 158,0zm161 55l-54 -54 -53 53 45 45c15,15 15,39 0,54l0 0c-15,15 -39,15 -54,0l-45 -45 -24 24 -2 2 -2 2 -24 24 45 45c15,15 15,39 0,54l0 0c-15,15 -39,15 -54,0l-45 -45 -53 53 54 54c43,43 114,43 158,0l0 0c21,-21 32,-48 32,-76 27,-1 55,-12 76,-32l0 0c43,-43 43,-114 0,-158z"/>
   <path class="fil1 str0" d="M715 300c0,-12 -3,-22 -8,-30 -6,-8 -14,-13 -24,-16l0 -1c5,-2 10,-5 13,-9 4,-4 7,-8 9,-14 2,-5 3,-12 3,-19 0,-10 -2,-19 -7,-26 -5,-7 -12,-13 -21,-17 -9,-4 -21,-6 -35,-6l-78 0 0 192 79 0c16,0 29,-2 39,-7 10,-4 18,-11 22,-19 5,-8 7,-18 7,-30zm-43 -3c0,6 -1,11 -3,14 -2,3 -4,6 -8,7 -4,1 -8,2 -14,2l-38 0 0 -47 37 0c6,0 11,1 15,2 4,2 7,4 8,7 2,3 3,8 3,13zm-5 -76c0,8 -2,13 -5,16 -4,3 -9,5 -17,5l-36 0 0 -42 35 0c5,0 10,1 13,2 3,1 6,3 8,6 2,3 2,7 2,12z"/>
   <path class="fil1 str0" d="M813 359c10,0 19,-1 28,-3 9,-2 16,-4 23,-7l-4 -32c-7,3 -13,4 -20,6 -7,1 -14,2 -21,2 -9,0 -16,-1 -22,-3 -6,-2 -10,-6 -13,-11 -3,-5 -5,-12 -6,-21l90 0c0,-2 0,-4 1,-6 0,-2 0,-4 0,-6 0,-2 0,-4 0,-6 0,-16 -3,-30 -8,-41 -5,-11 -12,-19 -22,-24 -10,-5 -21,-8 -34,-8 -16,0 -28,3 -38,9 -10,6 -18,15 -23,27 -5,12 -7,26 -7,42 0,18 3,33 8,45 5,12 14,21 25,28 11,6 26,9 44,9zm-37 -96c1,-7 2,-14 4,-18 2,-5 5,-8 9,-10 4,-2 9,-3 15,-3 6,0 10,1 14,3 4,2 7,5 9,10 2,5 3,11 4,18l-56 0z"/>
   <path class="fil1 str0" d="M1007 308c0,-7 -1,-14 -4,-19 -3,-5 -6,-9 -10,-12 -4,-3 -9,-6 -14,-8 -5,-2 -10,-4 -15,-5 -5,-1 -10,-3 -14,-4 -4,-1 -8,-3 -10,-5 -3,-2 -4,-5 -4,-8 0,-4 2,-7 5,-9 3,-2 8,-3 15,-3 4,0 8,0 13,1 5,1 10,1 15,3 5,1 10,3 14,4l3 -32c-7,-3 -14,-5 -21,-6 -7,-1 -15,-2 -23,-2 -10,0 -19,1 -26,4 -7,2 -14,6 -18,10 -5,4 -8,9 -11,15 -2,6 -4,12 -4,19 0,7 1,14 4,19 3,5 6,9 10,13 4,3 9,6 14,8 5,2 10,4 15,5 5,1 10,3 14,5 4,1 8,3 10,6 3,2 4,5 4,8 0,3 -1,6 -2,8 -2,2 -4,4 -7,5 -3,1 -8,2 -13,2 -4,0 -9,0 -15,-1 -5,-1 -10,-2 -16,-4 -5,-2 -10,-4 -14,-6l-4 32c7,4 14,6 22,8 8,2 17,3 26,3 14,0 25,-2 34,-6 9,-4 15,-10 19,-18 4,-8 6,-17 6,-27z"/>
   <path class="fil1 str0" d="M1122 230l0 -30 -35 0 0 -37 -31 3 -7 34 -19 0 0 30 17 0 0 78c0,10 2,18 5,25 3,7 8,12 15,16 7,4 15,6 26,6 4,0 7,0 11,-1 3,0 6,-1 9,-2 3,-1 5,-1 7,-2l-2 -29c-1,0 -2,1 -4,1 -1,0 -3,0 -4,1 -2,0 -3,0 -4,0 -6,0 -11,-1 -14,-4 -3,-3 -5,-7 -5,-13l0 -77 35 0z"/>
   <path class="fil1 str0" d="M1303 301c0,-13 -3,-23 -9,-30 -6,-8 -14,-13 -24,-16l0 -1c5,-2 10,-5 14,-9 4,-4 7,-8 9,-14 2,-5 3,-12 3,-19 0,-10 -2,-19 -7,-26 -4,-7 -11,-13 -20,-17 -9,-4 -20,-6 -33,-6l-74 0 0 192 77 0c15,0 28,-2 37,-7 10,-4 17,-11 21,-19 4,-8 7,-18 7,-30zm-35 -3c0,7 -1,13 -3,17 -2,4 -6,7 -10,9 -4,2 -10,3 -16,3l-43 0 0 -55 42 0c7,0 13,1 17,3 5,2 8,5 10,9 2,4 3,9 3,15zm-6 -79c0,9 -2,15 -6,19 -4,4 -11,6 -20,6l-41 0 0 -50 39 0c6,0 12,1 16,2 4,2 7,4 9,8 2,4 3,8 3,14z"/>
   <path class="fil1 str0" d="M1458 202l-32 0 0 101c0,18 -10,27 -30,27 -10,0 -18,-2 -23,-7 -5,-5 -7,-11 -7,-20l0 -101 -32 0 0 101c0,12 2,22 7,30 5,8 11,15 21,19 9,4 21,7 35,7 21,0 37,-5 47,-14 10,-9 16,-23 16,-41l0 -101z"/>
   <path class="fil1 str0" d="M1515 373c-3,0 -6,0 -8,-1 -3,-1 -6,-2 -8,-3l-3 24c4,2 8,3 12,4 4,1 9,1 13,1 8,0 15,-1 22,-4 6,-3 12,-7 17,-13 5,-6 9,-14 13,-24l55 -155 -35 0 -30 102 -5 20 -1 0 -7 -19 -38 -102 -37 0 67 152 -1 2c-2,4 -4,8 -7,10 -3,2 -5,4 -8,5 -3,1 -6,2 -10,1z"/>
   <polygon class="fil1 str0" points="1697,356 1697,198 1648,202 1648,222 1664,222 1664,356 "/>
   <path class="fil1 str0" d="M1859 356l0 -100c0,-12 -2,-23 -7,-31 -4,-8 -10,-15 -18,-19 -8,-4 -17,-6 -28,-6 -8,0 -16,1 -24,4 -7,3 -14,7 -20,12l-5 -15 -23 2 0 153 32 0 0 -113c2,-3 5,-6 8,-8 3,-2 7,-4 11,-5 4,-1 8,-2 12,-2 10,0 17,2 22,7 5,4 8,11 8,21l0 100 32 0z"/>
   <path class="fil1 str0" d="M1948 292c14,0 25,-2 33,-5 8,-4 14,-9 18,-15 4,-7 6,-15 6,-24 0,-7 -1,-13 -3,-17l17 -13 -7 -16 -26 9c-4,-2 -8,-4 -12,-5 -4,-1 -9,-2 -13,-3 -5,-1 -9,-1 -13,-1 -14,0 -25,2 -33,6 -8,4 -14,9 -18,16 -4,7 -6,15 -6,24 0,8 2,15 5,21 3,6 7,10 13,14l0 1c-6,3 -11,6 -14,11 -3,4 -5,9 -5,14 0,5 1,10 3,13 2,4 5,7 9,9 -4,4 -8,8 -10,12 -2,5 -3,9 -3,14 0,8 2,15 6,21 4,6 11,11 20,14 9,3 21,5 35,5 16,0 30,-2 40,-6 10,-4 17,-10 22,-17 5,-7 7,-16 7,-26 0,-8 -1,-14 -5,-19 -3,-5 -8,-10 -16,-13 -7,-3 -17,-5 -29,-6l-37 -3c-4,0 -7,-1 -9,-3 -2,-2 -3,-3 -3,-6 0,-2 1,-4 2,-5 1,-2 3,-3 6,-4 3,1 7,1 10,1 3,0 7,0 10,0zm15 47c7,1 12,1 16,3 4,1 6,3 8,5 1,2 2,4 2,7 0,3 -1,5 -2,8 -1,2 -3,4 -6,6 -3,2 -7,3 -12,4 -5,1 -12,1 -20,1 -8,0 -14,-1 -19,-2 -5,-1 -8,-4 -10,-7 -2,-3 -3,-7 -3,-11 0,-3 1,-6 2,-8 2,-3 4,-6 7,-8l37 3zm-14 -112c6,0 11,1 14,2 4,1 6,4 8,7 2,3 3,7 3,12 0,5 -1,9 -2,12 -2,3 -4,5 -8,7 -4,1 -9,2 -16,2 -5,0 -9,-1 -13,-2 -4,-1 -6,-3 -9,-6 -2,-3 -3,-7 -3,-13 0,-5 1,-9 2,-12 2,-3 4,-6 8,-7 4,-2 9,-2 15,-2z"/>
  </g>
 </g>
</svg>
